<svg id="圖層_1" data-name="圖層 1" xmlns="http://www.w3.org/2000/svg" viewBox="0 0 698 150"><defs><style>.cls-1{font-size:9.28px;stroke-width:2px;font-family:AdobeMingStd-Light-B5pc-H, Adobe Ming Std;}.cls-1,.cls-4{stroke:#000;stroke-miterlimit:10;}.cls-2{letter-spacing:2.17em;}.cls-3{font-size:61.89px;font-family:EdwardianScriptITC, Edwardian Script ITC;}.cls-4{font-size:37.13px;fill:#333;stroke-width:0.1px;font-family:ArialRoundedMTBold, Arial Rounded MT Bold;}.cls-5{letter-spacing:-0.01em;}.cls-6{fill:#f7931e;}</style></defs><title>A</title><text class="cls-1" transform="translate(26 56.75) scale(1.36 1)"><tspan class="cls-2">	</tspan><tspan class="cls-3" x="22.46" y="0">Welcome to Angelcake</tspan></text><text class="cls-4" transform="translate(110.94 106.6) scale(1.1 1)"><tspan xml:space="preserve">BEST  CAKE  FOR  </tspan><tspan class="cls-5" x="340.13" y="0">T</tspan><tspan x="362.85" y="0">OU</tspan></text><path class="cls-6" d="M122.52,142.47H292.46a1.5,1.5,0,0,0,0-3H220.19a1.5,1.5,0,0,0,0,3h72.27a1.5,1.5,0,0,0,0-3H122.52a1.5,1.5,0,0,0,0,3Z"/><path class="cls-6" d="M291.95,138.1q-40.86.15-81.72-.66c-1.93,0-1.93,3,0,3q40.85.81,81.72.66a1.5,1.5,0,0,0,0-3Z"/><path class="cls-6" d="M562.23,140.35H380.56a1.5,1.5,0,0,0,0,3h77.26a1.5,1.5,0,0,0,0-3H380.56a1.5,1.5,0,0,0,0,3H562.23a1.5,1.5,0,0,0,0-3Z"/><path class="cls-6" d="M381.11,141.84q43.68.16,87.36-.73c1.93,0,1.93-3,0-3q-43.67.89-87.36.73a1.5,1.5,0,0,0,0,3Z"/></svg>