<svg id="圖層_1" data-name="圖層 1" xmlns="http://www.w3.org/2000/svg" viewBox="0 0 773 300"><defs><style>.cls-1{font-size:12px;stroke-width:2px;font-family:AdobeMingStd-Light-B5pc-H, Adobe Ming Std;}.cls-1,.cls-4{stroke:#000;stroke-miterlimit:10;}.cls-2{letter-spacing:2.17em;}.cls-3{font-size:80px;font-family:EdwardianScriptITC, Edwardian Script ITC;}.cls-4{font-size:48px;fill:#333;stroke-width:0.1px;font-family:ArialRoundedMTBold, Arial Rounded MT Bold;}.cls-5{letter-spacing:-0.01em;}.cls-6{fill:#f7931e;}</style></defs><title>product_img</title><text class="cls-1" transform="translate(0 117.83) scale(1.24 1)"><tspan class="cls-2">	</tspan><tspan class="cls-3" x="29.03" y="0">Welcome to Angelcake</tspan></text><text class="cls-4" transform="translate(100.26 182.28)"><tspan xml:space="preserve">BEST  CAKE  FOR  </tspan><tspan class="cls-5" x="439.69" y="0">T</tspan><tspan x="469.05" y="0">OU</tspan></text><path class="cls-6" d="M113.94,228.21H314.55a1.5,1.5,0,0,0,0-3H229.24a1.5,1.5,0,0,0,0,3h85.31a1.5,1.5,0,0,0,0-3H113.94a1.5,1.5,0,0,0,0,3Z"/><path class="cls-6" d="M313.94,223.44q-48.24.19-96.47-.86c-1.93,0-1.93,3,0,3q48.23,1,96.47.86a1.5,1.5,0,0,0,0-3Z"/><path class="cls-6" d="M633,226.35H418.55a1.5,1.5,0,0,0,0,3h91.2a1.5,1.5,0,0,0,0-3h-91.2a1.5,1.5,0,0,0,0,3H633a1.5,1.5,0,0,0,0-3Z"/><path class="cls-6" d="M419.2,227.4q51.57.21,103.12-.95c1.93,0,1.93-3,0-3q-51.55,1.16-103.12.95a1.5,1.5,0,0,0,0,3Z"/></svg>